<svg xmlns="http://www.w3.org/2000/svg" xmlns:xlink="http://www.w3.org/1999/xlink" viewBox="0 0 99.93 100"><defs><style>.cls-1{fill:url(#linear-gradient);}.cls-2{fill:url(#linear-gradient-2);}.cls-3{fill:url(#linear-gradient-3);}.cls-4{fill:url(#linear-gradient-4);}.cls-5{fill:url(#linear-gradient-5);}.cls-6{fill:url(#linear-gradient-6);}</style><linearGradient id="linear-gradient" x1="56.37" y1="73.27" x2="96.85" y2="73.27" gradientUnits="userSpaceOnUse"><stop offset="0" stop-color="#4450a1"/><stop offset="0.05" stop-color="#445ca6"/><stop offset="0.28" stop-color="#4488b8"/><stop offset="0.48" stop-color="#43a8c6"/><stop offset="0.65" stop-color="#43bbce"/><stop offset="0.76" stop-color="#43c2d1"/><stop offset="0.77" stop-color="#44c2d1"/><stop offset="0.9" stop-color="#54c4d3"/><stop offset="1" stop-color="#59c5d3"/></linearGradient><linearGradient id="linear-gradient-2" x1="3.09" y1="73.25" x2="43.53" y2="73.25" xlink:href="#linear-gradient"/><linearGradient id="linear-gradient-3" x1="24.96" y1="18.81" x2="74.99" y2="18.81" xlink:href="#linear-gradient"/><linearGradient id="linear-gradient-4" x1="34.3" y1="80.02" x2="65.62" y2="80.02" xlink:href="#linear-gradient"/><linearGradient id="linear-gradient-5" x1="84.12" y1="34.55" x2="99.93" y2="34.55" xlink:href="#linear-gradient"/><linearGradient id="linear-gradient-6" x1="0" y1="34.5" x2="15.66" y2="34.5" xlink:href="#linear-gradient"/></defs><title>consulting</title><g id="Layer_2" data-name="Layer 2"><g id="Layer_1-2" data-name="Layer 1"><path class="cls-1" d="M69.82,79.4c-1.56,4.47-3.07,8.87-4.61,13.26-.6,1.71-1.25,3.4-1.87,5.1a3.57,3.57,0,0,1-4.18,2.12,3.73,3.73,0,0,1-2.73-4.18c.34-1.83.57-3.68.85-5.52.3-2,.59-4.07.89-6.1.23-1.53.48-3.07.71-4.6.34-2.29.55-4.61,1.07-6.87a5.89,5.89,0,0,1,3.78-4.07A7.72,7.72,0,0,1,67.25,68c.53,0,1.07,0,1.6,0a13.7,13.7,0,0,1-.34-2,3.61,3.61,0,0,1,2.9-3.4c2-.27,4-.48,6-.74s3.8-.52,5.8-.8c.44-1.38.82-2.85,1.36-4.27,1.1-2.88,2.17-5.77,4.21-8.18a5.29,5.29,0,0,1,4.31-2,3.63,3.63,0,0,1,3.77,3.83c-.12,1.8-.29,3.59-.42,5.38-.07.82-.11,1.64-.16,2.45-.1,1.81-.16,3.61-.3,5.42-.16,2.2-.4,4.39-.56,6.59-.13,1.71-.28,3.42-.29,5.12a3.93,3.93,0,0,1-4.06,4.09c-6.78,0-13.55,0-20.32,0Z"/><path class="cls-2" d="M31,68c.86,0,1.68,0,2.5,0,2.88.18,5.15,1.36,6.32,4.11a12.85,12.85,0,0,1,.59,2.86q.45,2.76.86,5.52c.27,1.8.49,3.61.75,5.4s.6,3.68.85,5.53.39,3.52.61,5.28c.19,1.44-1.73,3.34-3.26,3.3a3.58,3.58,0,0,1-3.83-2.79c-1.31-3.74-2.67-7.46-4-11.2-.69-1.94-1.35-3.87-2-5.83a.94.94,0,0,0-1.08-.76c-6.84,0-13.69,0-20.54,0a3.78,3.78,0,0,1-3.91-3.72c-.07-2.35-.37-4.69-.55-7-.12-1.68-.18-3.36-.3-5-.17-2.33-.38-4.65-.57-7-.06-.79-.1-1.59-.15-2.38-.1-1.34-.3-2.68-.27-4a3.6,3.6,0,0,1,3-3.56c2.77-.56,4.53.85,6,2.93a36,36,0,0,1,4.08,9.21,3.75,3.75,0,0,1,.27.82c.07,1.07.61,1.54,1.69,1.63,2.05.18,4.09.47,6.13.72,1.47.19,3,.3,4.41.61a3.52,3.52,0,0,1,2.53,5c0,.11-.06.22-.11.41"/><path class="cls-3" d="M30.47,33.73l2.6-.39A17.85,17.85,0,0,1,35.33,33a4.76,4.76,0,0,1,1.87.32,12.52,12.52,0,0,0,13.89-2.85,13,13,0,0,0,2.62-4.24l-.77,0c-3,0-6,0-9,0a4.91,4.91,0,0,1-4.64-4.64c.06-5.71,0-11.42,0-17.13A4.87,4.87,0,0,1,43.77,0c8.94.11,17.88.08,26.81,0a4.66,4.66,0,0,1,4.1,3A6.11,6.11,0,0,1,75,4.76q0,8.41,0,16.83A4.74,4.74,0,0,1,70.4,26.2c-1.06,0-2.13,0-3.3,0l1.67,3.38,1.44,2.9a1.45,1.45,0,0,1-.36,2,1.58,1.58,0,0,1-2.16,0l-7-5.67a.74.74,0,0,1-.28-.94c.31-.89.5-1.83.77-2.88l2.32,1.84.14-.08c-.19-.39-.36-.79-.56-1.17a1.73,1.73,0,0,1,1.67-2.72c1.74.09,3.5,0,5.24,0a1.63,1.63,0,0,0,1.72-1.74c0-5.39,0-10.78,0-16.17,0-1.3-.53-1.85-1.82-1.85H44.45c-1,0-2,.47-1.82,1.83a9.46,9.46,0,0,1,0,1.07,39.9,39.9,0,0,1,4.42,1,15.33,15.33,0,0,1,9.83,9.6,14.22,14.22,0,0,1,.9,6.23A15.88,15.88,0,0,1,46.39,37a15.24,15.24,0,0,1-7.76.21,11.78,11.78,0,0,1-2.11-.67c-1.09-.49-2.12,0-3.16.09-1.83.18-3.64.52-5.46.8l-1.14.14a1.57,1.57,0,0,1-1.6-.86,1.54,1.54,0,0,1,.21-1.79c1-1.38,2-2.78,3-4.14a1,1,0,0,0,0-1.34,14.7,14.7,0,0,1-1.85-5.6,15.56,15.56,0,0,1,3.36-11.77,14.44,14.44,0,0,1,5.26-4.16l.51-.21c0,1.14,0,2.2,0,3.27a.82.82,0,0,1-.34.54,12.38,12.38,0,0,0-5.42,8.25A11.88,11.88,0,0,0,31.94,29,1.67,1.67,0,0,1,32,31.21c-.53.79-1.09,1.55-1.64,2.33l.09.19m24-10.81c.65-7.5-5.8-13.59-11.74-13.23a.65.65,0,0,0,0,.2c0,3.9,0,7.81,0,11.71a1.09,1.09,0,0,0,.94,1.19,11.88,11.88,0,0,0,1.79.13h9.06"/><polygon class="cls-4" points="65.63 60.13 65.63 64.95 52.42 64.95 52.42 99.9 47.53 99.9 47.53 65 34.3 65 34.3 60.13 65.63 60.13"/><path class="cls-5" d="M99.89,33.72a10.84,10.84,0,0,1-4.5,8.83C93,44.18,91,44.14,88.54,42.36a10.72,10.72,0,0,1-4.27-7.17,8.24,8.24,0,0,1,2.25-7.47,7.5,7.5,0,0,1,8.67-1.62,8.31,8.31,0,0,1,4.69,6.16,7.11,7.11,0,0,1,0,1.46"/><path class="cls-6" d="M.05,33.67a7.93,7.93,0,0,1,5.3-7.86,7.27,7.27,0,0,1,7.41,1.4A7.5,7.5,0,0,1,15.57,32a12.91,12.91,0,0,1-.23,4.29,10.08,10.08,0,0,1-4.05,6.19c-2.95,2.12-5.81,1.17-8.08-1.1a12.68,12.68,0,0,1-3.15-6,7.08,7.08,0,0,1,0-1.66"/></g></g></svg>