<svg xmlns="http://www.w3.org/2000/svg" xmlns:xlink="http://www.w3.org/1999/xlink" viewBox="0 0 132.42 100"><defs><style>.cls-1{fill:url(#linear-gradient);}.cls-2{fill:url(#linear-gradient-2);}.cls-3{fill:url(#linear-gradient-3);}.cls-4{fill:url(#linear-gradient-4);}.cls-5{fill:url(#linear-gradient-5);}.cls-6{fill:url(#linear-gradient-6);}.cls-7{fill:url(#linear-gradient-7);}.cls-8{fill:url(#linear-gradient-8);}.cls-9{fill:url(#linear-gradient-9);}</style><linearGradient id="linear-gradient" x1="72.37" y1="40.19" x2="132.42" y2="40.19" gradientUnits="userSpaceOnUse"><stop offset="0" stop-color="#4450a1"/><stop offset="0.05" stop-color="#445ca6"/><stop offset="0.28" stop-color="#4488b8"/><stop offset="0.48" stop-color="#43a8c6"/><stop offset="0.65" stop-color="#43bbce"/><stop offset="0.76" stop-color="#43c2d1"/><stop offset="0.77" stop-color="#44c2d1"/><stop offset="0.9" stop-color="#54c4d3"/><stop offset="1" stop-color="#59c5d3"/></linearGradient><linearGradient id="linear-gradient-2" x1="0" y1="40.18" x2="60.09" y2="40.18" xlink:href="#linear-gradient"/><linearGradient id="linear-gradient-3" x1="12.82" y1="79.61" x2="35.63" y2="79.61" xlink:href="#linear-gradient"/><linearGradient id="linear-gradient-4" x1="96.89" y1="79.63" x2="119.7" y2="79.63" xlink:href="#linear-gradient"/><linearGradient id="linear-gradient-5" x1="40.38" y1="81.2" x2="69.41" y2="81.2" xlink:href="#linear-gradient"/><linearGradient id="linear-gradient-6" x1="48.68" y1="53.49" x2="73.47" y2="53.49" xlink:href="#linear-gradient"/><linearGradient id="linear-gradient-7" x1="70" y1="69.46" x2="90.92" y2="69.46" xlink:href="#linear-gradient"/><linearGradient id="linear-gradient-8" x1="99.08" y1="10.83" x2="118.64" y2="10.83" xlink:href="#linear-gradient"/><linearGradient id="linear-gradient-9" x1="13.9" y1="10.82" x2="33.46" y2="10.82" xlink:href="#linear-gradient"/></defs><title>hardSkill</title><g id="Layer_2" data-name="Layer 2"><g id="Layer_1-2" data-name="Layer 1"><path class="cls-1" d="M132.4,49c0,2,.07,3.9,0,5.85-.1,2.45-1.27,4-3.22,4.58-2.75.77-5.24-1.26-5.32-4.48-.1-3.5,0-7,0-10.51a12.28,12.28,0,0,0-2.06-6.82c-.29-.44-.53-1.19-1.24-.94s-.41.9-.42,1.39c-.07,5.34-.11,10.68-.18,16,0,2.59-.17,2.7-2.78,2.71H99.56c-2.65,0-2.8-.13-2.85-2.83-.08-4.93-.11-9.87-.18-14.81,0-2.07-.23-2.32-2.28-2.25a22.72,22.72,0,0,1-10.43-2.54A69.69,69.69,0,0,1,75,29.29c-2.52-1.68-3.31-4.2-2.12-6.35s3.83-2.83,6.5-1.59c2.45,1.14,4.81,2.45,7.16,3.76,4.52,2.51,8.92,2.57,13.3-.38,2.12-1.43,4.4-2.14,7-1a5.74,5.74,0,0,0,4.54-.16,7,7,0,0,1,4-.3c9.81,1.83,16.57,10,16.94,20.6.06,1.71,0,3.44,0,5.16M109,26.39a8.44,8.44,0,0,0-3.7,2,.86.86,0,0,0,.53,1.54c1.36.23,1.39,1.14,1.39,2.16V45c0,1.29,0,2.95,1.54,3,1.7.05,1.69-1.67,1.7-3V31.74c0-.94,0-1.77,1.35-1.9a.93.93,0,0,0,.53-1.68A7.2,7.2,0,0,0,109,26.39"/><path class="cls-2" d="M24.19,56.82H15.07c-2.18,0-2.4-.2-2.44-2.34-.07-5-.11-10.1-.17-15.15,0-.57,0-1.14-.05-1.72,0-.34,0-.74-.38-.9s-.73.21-1,.52a11.85,11.85,0,0,0-2.34,6.9c0,3.38,0,6.77,0,10.15A6.87,6.87,0,0,1,8.28,57a4.14,4.14,0,0,1-7.73-.06,3,3,0,0,1-.28-1C.17,49.36-.79,42.7,1.65,36.33c2.73-7.12,7.81-11.59,15.4-13a6.84,6.84,0,0,1,4.05.28,5.82,5.82,0,0,0,4.71.12,6.18,6.18,0,0,1,6.36.78c5,3.54,10,3,15,0A33.41,33.41,0,0,1,53.88,21c3.58-1.17,6.69,1.26,6.15,4.74a4.32,4.32,0,0,1-1.86,3c-4.42,3-8.92,5.88-14.12,7.4a16.64,16.64,0,0,1-5.95.73C36.51,36.77,36,37.48,36,39c0,4.93-.08,9.87-.15,14.8-.05,2.92-.16,3-3,3H24.19M22.05,38.55h0v6.53c0,1.3.08,2.93,1.64,2.92s1.6-1.64,1.6-3c0-4.35,0-8.7,0-13,0-1,.06-1.78,1.32-2,1.08-.22,1.17-1,.43-1.78a4.67,4.67,0,0,0-6.6-.31c-.92.8-.81,1.8.36,2s1.24.79,1.24,1.65v7"/><path class="cls-3" d="M35.59,78.1c0,5.51,0,11,0,16.53,0,2.9-1.8,5.09-4.15,5.32-2.81.27-5.06-2-5.11-5.23-.07-5.1,0-10.21,0-15.32,0-3.68,0-7.35,0-11,0-1.51-.59-2.29-2.1-2.3s-2.05.86-2,2.33c0,8.43,0,16.87,0,25.31a7.43,7.43,0,0,1-.53,3.37,4.4,4.4,0,0,1-8.25,0,6.13,6.13,0,0,1-.54-2.68q0-16.44,0-32.89c0-2.06.2-2.26,2.29-2.26q9.12,0,18.25,0c2.06,0,2.25.2,2.26,2.29,0,5.51,0,11,0,16.54Z"/><path class="cls-4" d="M96.89,78q0-8.08,0-16.19c0-2.34.15-2.5,2.39-2.51h18.08c2.16,0,2.33.19,2.33,2.4q0,16.28,0,32.55a6.32,6.32,0,0,1-1.12,3.9,4.33,4.33,0,0,1-4.71,1.73,5.06,5.06,0,0,1-3.44-4.71c-.1-3,0-6,0-8.95,0-5.86,0-11.71,0-17.57,0-1.45-.29-2.52-2-2.54-1.55,0-2.12.65-2.12,2.61q0,12.22,0,24.45a20.88,20.88,0,0,1,0,2.24A4.61,4.61,0,1,1,97,95.18c-.1-1.48,0-3,0-4.47V78Z"/><path class="cls-5" d="M46.36,69.71a3.05,3.05,0,0,1,2,.88c1.65,1.16,3.3.49,3.7-1.49.44-2.22.94-2.56,3.26-2.46a2.16,2.16,0,0,1,2.33,2c.43,2.56,2,3.24,4.07,1.71,1.41-1.05,2.37-.56,3.43.49s1.6,2,.57,3.42c-1.51,2.12-.88,3.61,1.73,4.09,1.62.31,2,1.26,2,2.7s-.17,2.55-1.94,2.89c-2.7.52-3.22,1.91-1.6,4.22,1,1.41.35,2.3-.63,3.27s-1.84,1.66-3.26.68c-2.43-1.65-3.77-1.07-4.37,1.84-.36,1.77-1.63,1.81-3,1.81s-2.29-.4-2.51-2c-.37-2.68-1.9-3.33-4.16-1.74-1.47,1-2.39.36-3.41-.66S43,89.51,44,88.13C45.54,86,45,84.46,42.43,84c-1.83-.34-2-1.47-2-3s.45-2.36,2-2.64c2.6-.46,3.16-1.86,1.7-4.08-.5-.76-.89-1.56-.29-2.37a4.76,4.76,0,0,1,2.54-2.19M59.7,81.17a4.8,4.8,0,0,0-4.8-4.82,4.87,4.87,0,1,0,4.8,4.82"/><path class="cls-6" d="M70.69,46.43c0,.68-.5,1.14-.8,1.68A1.85,1.85,0,0,0,71.18,51c1.46.23,2.3.78,2.29,2.41a2.19,2.19,0,0,1-2.15,2.52A1.86,1.86,0,0,0,70,59c.78,1.07,1,1.93,0,3s-2,1.55-3.39.51a1.88,1.88,0,0,0-3.13,1.24,2.23,2.23,0,0,1-2.57,2.12,2.08,2.08,0,0,1-2.34-2.12,1.87,1.87,0,0,0-3.12-1.24C54,63.59,53,63.07,52,61.89a1.79,1.79,0,0,1-.2-2.46c1.29-2,.86-3-1.51-3.62-1.28-.32-1.55-1.17-1.56-2.31s.28-2.09,1.64-2.41c2.38-.56,2.8-1.54,1.48-3.59-.8-1.24-.21-2,.61-2.83s1.57-1.23,2.7-.49c2,1.34,3.09.91,3.57-1.45a1.81,1.81,0,0,1,2.06-1.61c1.13,0,2.15,0,2.58,1.43.84,2.68,1.4,2.88,3.81,1.59,1.39-.74,3.61.69,3.56,2.29M61,57.57a4,4,0,0,0,4.16-4.12,4.1,4.1,0,0,0-8.2-.08,4,4,0,0,0,4,4.2"/><path class="cls-7" d="M76.09,77.65c0-1.63-.84-2.36-2.42-1.89a1.91,1.91,0,0,1-2.55-1,1.87,1.87,0,0,1,.52-2.68c1.15-1,1-2.16-.36-2.87A1.93,1.93,0,0,1,70.1,66.7a1.89,1.89,0,0,1,2.21-1.62c1.65,0,2.33-.87,1.83-2.41a1.83,1.83,0,0,1,.9-2.44,1.87,1.87,0,0,1,2.71.33c1.18,1.24,2.18,1.09,3-.38a1.88,1.88,0,0,1,2.55-1,1.8,1.8,0,0,1,1.49,2.12c-.1,1.61.85,2.34,2.4,1.8a1.83,1.83,0,0,1,2.52,1,1.88,1.88,0,0,1-.47,2.7c-1.11,1-.93,2.17.39,2.9,1,.53,1.55,1,1.21,2.28S90,73.75,88.73,73.8c-1.85.06-2.37.77-1.89,2.53a1.86,1.86,0,0,1-1,2.39,1.82,1.82,0,0,1-2.58-.34c-1.21-1.27-2.31-1.14-3.14.34a1.9,1.9,0,0,1-2.56,1c-1.1-.34-1.69-.92-1.43-2.08m4.38-11.76A3.57,3.57,0,0,0,80.41,73a3.57,3.57,0,0,0,.06-7.13"/><path class="cls-8" d="M109,0a9.74,9.74,0,0,1,9.52,11.5,13.84,13.84,0,0,1-4.24,7.89c-3.11,2.84-7.12,3.09-10.31.37-3.63-3.09-5.49-7.07-4.65-11.91A9.45,9.45,0,0,1,109,0m-.2,18.68c3,0,7.18-4.61,6.74-7.56-.11-.8-.65-1-1.31-1.1A10.48,10.48,0,0,1,109.8,8.6c-1.93-1.41-3.42-1.29-5.39.14-2.5,1.81-2.86,2.14-1.51,5a12.56,12.56,0,0,0,1.53,2.47,5.49,5.49,0,0,0,4.33,2.46"/><path class="cls-9" d="M23.8,0a9.7,9.7,0,0,1,9.5,11.49,13.57,13.57,0,0,1-4.22,7.9,7.49,7.49,0,0,1-8.74,1.41C16,18.65,13.05,12.39,14.11,7.67A9.61,9.61,0,0,1,23.8,0m-.11,18.67a3.8,3.8,0,0,0,2-.44,9.66,9.66,0,0,0,4.71-7,1.53,1.53,0,0,0-1-1.76,13.51,13.51,0,0,1-2.65-1.57,1.71,1.71,0,0,0-2.42-.13,11.28,11.28,0,0,1-4.72,2c-2.65.44-3.25.52-1.88,4a9.5,9.5,0,0,0,2.84,3.82,4.65,4.65,0,0,0,3.16,1.16"/></g></g></svg>