<svg xmlns="http://www.w3.org/2000/svg" xmlns:xlink="http://www.w3.org/1999/xlink" viewBox="0 0 100.02 100"><defs><style>.cls-1{fill:url(#linear-gradient);}.cls-2{fill:url(#linear-gradient-2);}.cls-3{fill:url(#linear-gradient-3);}.cls-4{fill:url(#linear-gradient-4);}.cls-5{fill:url(#linear-gradient-5);}</style><linearGradient id="linear-gradient" y1="33.37" x2="33.22" y2="33.37" gradientUnits="userSpaceOnUse"><stop offset="0" stop-color="#4450a1"/><stop offset="0.05" stop-color="#445ca6"/><stop offset="0.28" stop-color="#4488b8"/><stop offset="0.48" stop-color="#43a8c6"/><stop offset="0.65" stop-color="#43bbce"/><stop offset="0.76" stop-color="#43c2d1"/><stop offset="0.77" stop-color="#44c2d1"/><stop offset="0.9" stop-color="#54c4d3"/><stop offset="1" stop-color="#59c5d3"/></linearGradient><linearGradient id="linear-gradient-2" x1="37.52" y1="12.52" x2="62.51" y2="12.52" xlink:href="#linear-gradient"/><linearGradient id="linear-gradient-3" x1="0.26" y1="79.16" x2="91.96" y2="79.16" xlink:href="#linear-gradient"/><linearGradient id="linear-gradient-4" x1="33.6" y1="50.01" x2="58.61" y2="50.01" xlink:href="#linear-gradient"/><linearGradient id="linear-gradient-5" x1="66.69" y1="27.07" x2="100.02" y2="27.07" xlink:href="#linear-gradient"/></defs><title>softSkill</title><g id="Layer_2" data-name="Layer 2"><g id="Layer_1-2" data-name="Layer 1"><path class="cls-1" d="M0,33.26c.13-.11.26-.2.38-.31L16.31,17c.11-.11.2-.23.27-.31L33.22,33.34,16.52,50a1.14,1.14,0,0,0-.21-.35q-7.95-8-15.93-16c-.12-.11-.25-.2-.38-.31ZM16.64,44,27.33,33.33,16.7,22.71,6,33.39,16.64,44"/><path class="cls-2" d="M51.18,0c.78.17,1.59.27,2.34.51,4.9,1.59,7.95,4.9,8.81,10A12.49,12.49,0,1,1,46.9.39c.64-.17,1.3-.26,2-.39ZM50,20.84a8.34,8.34,0,1,0-8.34-8.35A8.38,8.38,0,0,0,50,20.84"/><path class="cls-3" d="M62.78,76.1V100H29.44V76.07l-2.1,1.57-12,9a4.17,4.17,0,0,1-6.49-1.79Q4.72,74.51.59,64.15A4.15,4.15,0,0,1,3.71,58.4,4.16,4.16,0,0,1,8.32,61c1.63,4,3.23,8.08,4.85,12.12.42,1.06.85,2.13,1.28,3.2.05.12.11.24.19.4l3.45-2.59,8.76-6.57a4.27,4.27,0,0,1,2.67-.89H62.69a4.4,4.4,0,0,1,2.7.91l11.83,8.87.37.27.52-1.29,5.76-14.39a4.18,4.18,0,1,1,7.79,3C88.88,71,86.12,78,83.32,84.92a4.17,4.17,0,0,1-6.49,1.69L63.17,76.36l-.39-.26"/><path class="cls-4" d="M58.61,50A12.51,12.51,0,1,1,46.07,37.51,12.48,12.48,0,0,1,58.61,50"/><path class="cls-5" d="M66.69,41.65c5.56-9.72,11.09-19.4,16.66-29.16C88.93,22.24,94.46,31.92,100,41.65ZM83.35,20.92C80.17,26.48,77,32,73.89,37.49H92.82L83.35,20.92"/></g></g></svg>